<svg width="490" height="193" viewBox="0 0 490 193" fill="none" xmlns="http://www.w3.org/2000/svg">
<g filter="url(#filter0_d_2_19)">
<path d="M125.875 151V41H155.688C163.688 41 169.5 42.9583 173.125 46.875C176.792 50.75 178.625 57.1667 178.625 66.125V70.9375C178.625 76.1042 177.688 80.2917 175.812 83.5C173.979 86.7083 171.167 88.8125 167.375 89.8125C172.333 91.0625 175.646 94 177.312 98.625C179.021 103.208 179.875 108.812 179.875 115.438C179.875 122.562 179.208 128.792 177.875 134.125C176.542 139.458 174.125 143.604 170.625 146.562C167.125 149.521 162.146 151 155.688 151H125.875ZM147.375 82.4375H151.875C153.917 82.4375 155.229 81.6458 155.812 80.0625C156.396 78.4792 156.688 76.5833 156.688 74.375V63.3125C156.688 59.7708 155.125 58 152 58H147.375V82.4375ZM149.562 131.625C155.271 131.625 158.125 128.917 158.125 123.5V109.75C158.125 106.625 157.646 104.167 156.688 102.375C155.771 100.542 154.021 99.625 151.438 99.625H147.375V131.5C148.292 131.583 149.021 131.625 149.562 131.625ZM186.125 151V41H207.375V151H186.125ZM216.125 151V41H249.625L258.875 108.062L268.062 41H301.875V151H281.75V71.75L269.125 151H249.375L236 71.75V151H216.125ZM324.938 151V114.812L307.375 41H329.188L335.312 78.25L341.438 41H363.188L345.688 114.812V151H324.938ZM395 152C386.208 152 379.479 149.354 374.812 144.062C370.188 138.729 367.875 131.042 367.875 121V68.75C367.875 59.3333 370.167 52.1875 374.75 47.3125C379.375 42.4375 386.125 40 395 40C403.875 40 410.604 42.4375 415.188 47.3125C419.812 52.1875 422.125 59.3333 422.125 68.75V121C422.125 131.042 419.792 138.729 415.125 144.062C410.5 149.354 403.792 152 395 152ZM395.188 131.75C398.521 131.75 400.188 128.521 400.188 122.062V68.375C400.188 62.9583 398.562 60.25 395.312 60.25C391.646 60.25 389.812 63.0208 389.812 68.5625V122.188C389.812 125.604 390.229 128.062 391.062 129.562C391.896 131.021 393.271 131.75 395.188 131.75ZM456.438 152C447.271 152 440.521 149.438 436.188 144.312C431.854 139.146 429.688 131.562 429.688 121.562V41H451.062V120.688C451.062 122.521 451.167 124.292 451.375 126C451.583 127.667 452.062 129.042 452.812 130.125C453.562 131.208 454.771 131.75 456.438 131.75C458.146 131.75 459.375 131.229 460.125 130.188C460.875 129.104 461.333 127.708 461.5 126C461.708 124.292 461.812 122.521 461.812 120.688V41H483.188V121.562C483.188 131.562 481.021 139.146 476.688 144.312C472.354 149.438 465.604 152 456.438 152Z" fill="white"/>
<line x1="9" y1="93" x2="9" y2="114" stroke="white" stroke-width="10" stroke-linecap="round"/>
<line x1="24" y1="67" x2="24" y2="133" stroke="white" stroke-width="10" stroke-linecap="round"/>
<line x1="39" y1="44" x2="39" y2="146" stroke="#E5EEF5" stroke-width="10" stroke-linecap="round"/>
<line x1="53" y1="67" x2="53" y2="133" stroke="#BBD5EC" stroke-width="10" stroke-linecap="round"/>
<line x1="67.8505" y1="77.8692" x2="67.8505" y2="123.383" stroke="#8DBDE8" stroke-width="10" stroke-linecap="round"/>
<line x1="82.2991" y1="93.2897" x2="82.2991" y2="112.075" stroke="#59A6E8" stroke-width="10" stroke-linecap="round"/>
<line x1="97" y1="67" x2="97" y2="133" stroke="#208EEE" stroke-width="10" stroke-linecap="round"/>
<line x1="111" y1="78" x2="111" y2="123" stroke="#0476D9" stroke-width="10" stroke-linecap="round"/>
</g>
<defs>
<filter id="filter0_d_2_19" x="0" y="35" width="489.188" height="123" filterUnits="userSpaceOnUse" color-interpolation-filters="sRGB">
<feFlood flood-opacity="0" result="BackgroundImageFix"/>
<feColorMatrix in="SourceAlpha" type="matrix" values="0 0 0 0 0 0 0 0 0 0 0 0 0 0 0 0 0 0 127 0" result="hardAlpha"/>
<feOffset dx="1" dy="1"/>
<feGaussianBlur stdDeviation="2.5"/>
<feComposite in2="hardAlpha" operator="out"/>
<feColorMatrix type="matrix" values="0 0 0 0 0 0 0 0 0 0 0 0 0 0 0 0 0 0 0.15 0"/>
<feBlend mode="normal" in2="BackgroundImageFix" result="effect1_dropShadow_2_19"/>
<feBlend mode="normal" in="SourceGraphic" in2="effect1_dropShadow_2_19" result="shape"/>
</filter>
</defs>
</svg>
